# xmcd
#
# Track frame offsets:
#	150
#	16410
#	30654
#	41235
#	56046
#	69297
#	81609
#	98406
#	112114
#	124052
#	135776
#	149367
#	160235
#	166728
#	188409
#	200686
#	217600
#	222673
#
# Disc length: 3019 seconds
#
# Revision: 1
# Processed by: cddbd v1.5.2PL0 Copyright (c) Steve Scherf et al.
# Submitted via: audiograbber 1.83.01
#
DISCID=fb0bc912
DTITLE=Hank Williams - Revealed - CD 1
DYEAR=2009
DGENRE=Country
TTITLE0=Cold, Cold Heart
TTITLE1=Move It On Over
TTITLE2=Lonesome Whistle
TTITLE3=Long Gone Lonesome Blues
TTITLE4=Hey, Good Lookin'
TTITLE5=I Can't Help It (If I'm Still In Love With You)
TTITLE6=Why Don't You Love Me
TTITLE7=A Mansion On The Hill
TTITLE8=Moanin' The Blues
TTITLE9=I Just Don't Like This Kind Of Livin'
TTITLE10=They'll Never Take Her Love From Me
TTITLE11=Mind Your Own Business
TTITLE12=Lovesick Blues
TTITLE13=Nobody's Lonesome For Me
TTITLE14=Don Helms and Sammy Pruett and The Drifting Cowboys - Twin Guitar Polka
TTITLE15=Gathering Flowers For The Master's Bouquet
TTITLE16=Jerry Rivers and The Drifting Cowboys - Eighth Of January
TTITLE17=Closing Theme
EXTD=
EXTT0=
EXTT1=
EXTT2=
EXTT3=
EXTT4=
EXTT5=
EXTT6=
EXTT7=
EXTT8=
EXTT9=
EXTT10=
EXTT11=
EXTT12=
EXTT13=
EXTT14=
EXTT15=
EXTT16=
EXTT17=
PLAYORDER=
